<svg width="1562" height="94" viewBox="0 0 1562 94" fill="none" xmlns="http://www.w3.org/2000/svg">
<path d="M11 47C20.1539 74.1664 43.2471 112.199 62.3888 47" stroke="#24996E" stroke-width="22"/>
<path d="M216.283 47C225.437 74.1664 248.53 112.199 267.672 47" stroke="#24996E" stroke-width="22"/>
<path d="M421.566 47C430.72 74.1664 453.813 112.199 472.955 47" stroke="#24996E" stroke-width="22"/>
<path d="M113.506 47C122.66 74.1664 145.753 112.199 164.895 47" stroke="#24996E" stroke-width="22"/>
<path d="M319.061 47C328.214 74.1664 351.308 112.199 370.449 47" stroke="#24996E" stroke-width="22"/>
<path d="M524.344 47C533.498 74.1664 556.591 112.199 575.733 47" stroke="#24996E" stroke-width="22"/>
<path d="M113.506 47C104.352 19.8336 81.2587 -18.1995 62.1171 47" stroke="#24996E" stroke-width="22"/>
<path d="M319.061 47C309.907 19.8336 286.813 -18.1995 267.672 47" stroke="#24996E" stroke-width="22"/>
<path d="M524.344 47C515.19 19.8336 492.097 -18.1995 472.955 47" stroke="#24996E" stroke-width="22"/>
<path d="M216.283 47C207.129 19.8336 184.036 -18.1995 164.894 47" stroke="#24996E" stroke-width="22"/>
<path d="M421.566 47C412.412 19.8336 389.319 -18.1995 370.177 47" stroke="#24996E" stroke-width="22"/>
<path d="M626.849 47C617.695 19.8336 594.602 -18.1995 575.46 47" stroke="#24996E" stroke-width="22"/>
<path d="M627.15 47C636.304 74.1664 659.398 112.199 678.539 47" stroke="#24996E" stroke-width="22"/>
<path d="M832.433 47C841.587 74.1664 864.68 112.199 883.822 47" stroke="#24996E" stroke-width="22"/>
<path d="M1037.72 47C1046.87 74.1664 1069.96 112.199 1089.11 47" stroke="#24996E" stroke-width="22"/>
<path d="M729.656 47C738.81 74.1664 761.903 112.199 781.045 47" stroke="#24996E" stroke-width="22"/>
<path d="M935.211 47C944.365 74.1664 967.459 112.199 986.6 47" stroke="#24996E" stroke-width="22"/>
<path d="M1140.5 47C1149.65 74.1664 1172.74 112.199 1191.88 47" stroke="#24996E" stroke-width="22"/>
<path d="M729.656 47C720.502 19.8336 697.409 -18.1995 678.267 47" stroke="#24996E" stroke-width="22"/>
<path d="M935.211 47C926.058 19.8336 902.964 -18.1995 883.823 47" stroke="#24996E" stroke-width="22"/>
<path d="M1140.5 47C1131.34 19.8336 1108.25 -18.1995 1089.11 47" stroke="#24996E" stroke-width="22"/>
<path d="M832.433 47C823.279 19.8336 800.186 -18.1995 781.044 47" stroke="#24996E" stroke-width="22"/>
<path d="M1037.72 47C1028.56 19.8336 1005.47 -18.1995 986.328 47" stroke="#24996E" stroke-width="22"/>
<path d="M1243 47C1233.85 19.8336 1210.75 -18.1995 1191.61 47" stroke="#24996E" stroke-width="22"/>
<path d="M1243 47C1252.15 74.1664 1275.25 112.199 1294.39 47" stroke="#24996E" stroke-width="22"/>
<path d="M1448.28 47C1457.44 74.1664 1480.53 112.199 1499.67 47" stroke="#24996E" stroke-width="22"/>
<path d="M1345.51 47C1354.66 74.1664 1377.75 112.199 1396.89 47" stroke="#24996E" stroke-width="22"/>
<path d="M1345.51 47C1336.35 19.8336 1313.26 -18.1995 1294.12 47" stroke="#24996E" stroke-width="22"/>
<path d="M1551.06 47C1541.91 19.8336 1518.81 -18.1995 1499.67 47" stroke="#24996E" stroke-width="22"/>
<path d="M1448.28 47C1439.13 19.8336 1416.04 -18.1995 1396.89 47" stroke="#24996E" stroke-width="22"/>
</svg>
